name rise30.9205peak61.366fall85.3838.mot
datacolumns 19
datarows 21
range 1.11000600000000 1.14333300000000
endheader
time	ground_force1_vx	ground_force1_vy	ground_force1_vz	ground_force1_px	ground_force1_py	ground_force1_pz	ground_force2_vx	ground_force2_vy	ground_force2_vz	ground_force2_px	ground_force2_py	ground_force2_pz	ground_torque1_x	ground_torque1_y	ground_torque1_z	ground_torque2_x	ground_torque2_y	ground_torque2_z	
1.11000600000000	14.46816300000000	706.57449699999995	38.64093900000000	0.24807700000000	0.00000000000000	0.09892100000000	0.00000000000000	0.00000000000000	0.00000000000000	0.00000000000000	0.00000000000000	0.00000000000000	0.00000000000000	16.10691400000000	0.00000000000000	0.00000000000000	0.00000000000000	0.00000000000000	
1.11166200000000	14.04599900000000	707.06041800000003	38.69109800000000	0.24717500000000	0.00000000000000	0.09891400000000	0.00000000000000	0.00000000000000	0.00000000000000	0.00000000000000	0.00000000000000	0.00000000000000	0.00000000000000	16.14717700000000	0.00000000000000	0.00000000000000	0.00000000000000	0.00000000000000	
1.11332900000000	13.61707300000000	707.55869499999994	38.74178400000000	0.24625800000000	0.00000000000000	0.09890700000000	0.00000000000000	0.00000000000000	0.00000000000000	0.00000000000000	0.00000000000000	0.00000000000000	0.00000000000000	16.18944400000000	0.00000000000000	0.00000000000000	0.00000000000000	0.00000000000000	
1.11500500000000	13.18117700000000	708.06889899999999	38.79281100000000	0.24532700000000	0.00000000000000	0.09890000000000	0.00000000000000	0.00000000000000	0.00000000000000	0.00000000000000	0.00000000000000	0.00000000000000	0.00000000000000	16.23368800000000	0.00000000000000	0.00000000000000	0.00000000000000	0.00000000000000	
1.11666200000000	12.73812200000000	708.59069299999999	38.84400700000000	0.24438000000000	0.00000000000000	0.09889400000000	0.00000000000000	0.00000000000000	0.00000000000000	0.00000000000000	0.00000000000000	0.00000000000000	0.00000000000000	16.27988300000000	0.00000000000000	0.00000000000000	0.00000000000000	0.00000000000000	
1.11832900000000	12.28773700000000	709.12382800000000	38.89521000000000	0.24341900000000	0.00000000000000	0.09888800000000	0.00000000000000	0.00000000000000	0.00000000000000	0.00000000000000	0.00000000000000	0.00000000000000	0.00000000000000	16.32801000000000	0.00000000000000	0.00000000000000	0.00000000000000	0.00000000000000	
1.12001200000000	11.82987100000000	709.66814899999997	38.94627300000000	0.24244200000000	0.00000000000000	0.09888300000000	0.00000000000000	0.00000000000000	0.00000000000000	0.00000000000000	0.00000000000000	0.00000000000000	0.00000000000000	16.37805400000000	0.00000000000000	0.00000000000000	0.00000000000000	0.00000000000000	
1.12166100000000	11.36439300000000	710.22359600000004	38.99705900000000	0.24144900000000	0.00000000000000	0.09887800000000	0.00000000000000	0.00000000000000	0.00000000000000	0.00000000000000	0.00000000000000	0.00000000000000	0.00000000000000	16.43000300000000	0.00000000000000	0.00000000000000	0.00000000000000	0.00000000000000	
1.12333500000000	10.89119300000000	710.79020100000002	39.04744600000000	0.24044100000000	0.00000000000000	0.09887400000000	0.00000000000000	0.00000000000000	0.00000000000000	0.00000000000000	0.00000000000000	0.00000000000000	0.00000000000000	16.48385100000000	0.00000000000000	0.00000000000000	0.00000000000000	0.00000000000000	
1.12499900000000	10.41018200000000	711.36809100000005	39.09732500000000	0.23941800000000	0.00000000000000	0.09887000000000	0.00000000000000	0.00000000000000	0.00000000000000	0.00000000000000	0.00000000000000	0.00000000000000	0.00000000000000	16.53959400000000	0.00000000000000	0.00000000000000	0.00000000000000	0.00000000000000	
1.12666800000000	9.92129100000000	711.95748900000001	39.14660100000000	0.23838100000000	0.00000000000000	0.09886600000000	0.00000000000000	0.00000000000000	0.00000000000000	0.00000000000000	0.00000000000000	0.00000000000000	0.00000000000000	16.59723100000000	0.00000000000000	0.00000000000000	0.00000000000000	0.00000000000000	
1.12832900000000	9.42447300000000	712.55871000000002	39.19519200000000	0.23732800000000	0.00000000000000	0.09886200000000	0.00000000000000	0.00000000000000	0.00000000000000	0.00000000000000	0.00000000000000	0.00000000000000	0.00000000000000	16.65676500000000	0.00000000000000	0.00000000000000	0.00000000000000	0.00000000000000	
1.13001100000000	8.91970600000000	713.17216399999995	39.24303200000000	0.23626200000000	0.00000000000000	0.09885900000000	0.00000000000000	0.00000000000000	0.00000000000000	0.00000000000000	0.00000000000000	0.00000000000000	0.00000000000000	16.71820100000000	0.00000000000000	0.00000000000000	0.00000000000000	0.00000000000000	
1.13166000000000	8.40698400000000	713.79834900000003	39.29007000000000	0.23518100000000	0.00000000000000	0.09885600000000	0.00000000000000	0.00000000000000	0.00000000000000	0.00000000000000	0.00000000000000	0.00000000000000	0.00000000000000	16.78154500000000	0.00000000000000	0.00000000000000	0.00000000000000	0.00000000000000	
1.13332900000000	7.88632900000000	714.43785400000002	39.33626800000000	0.23408800000000	0.00000000000000	0.09885300000000	0.00000000000000	0.00000000000000	0.00000000000000	0.00000000000000	0.00000000000000	0.00000000000000	0.00000000000000	16.84680700000000	0.00000000000000	0.00000000000000	0.00000000000000	0.00000000000000	
1.13501100000000	7.35778100000000	715.09135400000002	39.38160600000000	0.23298200000000	0.00000000000000	0.09885000000000	0.00000000000000	0.00000000000000	0.00000000000000	0.00000000000000	0.00000000000000	0.00000000000000	0.00000000000000	16.91399700000000	0.00000000000000	0.00000000000000	0.00000000000000	0.00000000000000	
1.13666500000000	6.82140300000000	715.75960899999995	39.42607700000000	0.23186400000000	0.00000000000000	0.09884700000000	0.00000000000000	0.00000000000000	0.00000000000000	0.00000000000000	0.00000000000000	0.00000000000000	0.00000000000000	16.98312500000000	0.00000000000000	0.00000000000000	0.00000000000000	0.00000000000000	
1.13833300000000	6.27728000000000	716.44345799999996	39.46969000000000	0.23073400000000	0.00000000000000	0.09884400000000	0.00000000000000	0.00000000000000	0.00000000000000	0.00000000000000	0.00000000000000	0.00000000000000	0.00000000000000	17.05420200000000	0.00000000000000	0.00000000000000	0.00000000000000	0.00000000000000	
1.14000900000000	5.72552000000000	717.14381500000002	39.51247000000000	0.22959500000000	0.00000000000000	0.09884100000000	0.00000000000000	0.00000000000000	0.00000000000000	0.00000000000000	0.00000000000000	0.00000000000000	0.00000000000000	17.12723900000000	0.00000000000000	0.00000000000000	0.00000000000000	0.00000000000000	
1.14166200000000	5.16625000000000	717.86167000000000	39.55446000000000	0.22844600000000	0.00000000000000	0.09883700000000	0.00000000000000	0.00000000000000	0.00000000000000	0.00000000000000	0.00000000000000	0.00000000000000	0.00000000000000	17.20224700000000	0.00000000000000	0.00000000000000	0.00000000000000	0.00000000000000	
1.14333300000000	4.59961900000000	718.59807599999999	39.59571500000000	0.22728800000000	0.00000000000000	0.09883300000000	0.00000000000000	0.00000000000000	0.00000000000000	0.00000000000000	0.00000000000000	0.00000000000000	0.00000000000000	17.27923500000000	0.00000000000000	0.00000000000000	0.00000000000000	0.00000000000000	
